Coordinates
version=1
nRows=15
nColumns=46
inDegrees=yes

Units are S.I. units (second, meters, Newtons, ...)
Angles are in degrees.

endheader
time	pelvis_tilt	pelvis_list	pelvis_rotation	pelvis_tx	pelvis_ty	pelvis_tz	bb_angle	bb_tx	bb_ty	bb_tz	hip_flexion_r	hip_adduction_r	hip_rotation_r	knee_angle_r	knee_angle_r_beta	ankle_angle_r	subtalar_angle_r	mtp_angle_r	crank_angle_r	hip_flexion_l	hip_adduction_l	hip_rotation_l	knee_angle_l	knee_angle_l_beta	ankle_angle_l	subtalar_angle_l	mtp_angle_l	crank_angle_l	lumbar_extension	lumbar_bending	lumbar_rotation	arm_flex_r	arm_add_r	arm_rot_r	elbow_flex_r	pro_sup_r	wrist_flex_r	wrist_dev_r	arm_flex_l	arm_add_l	arm_rot_l	elbow_flex_l	pro_sup_l	wrist_flex_l	wrist_dev_l
      0.00000000	    -29.58466563	    -31.87155615	     -2.93139570	      0.11677380	      1.00771707	     -0.27199571	      0.00000000	      0.50000000	      0.00000000	      0.25000000	     62.59645947	     21.34235431	    -20.96533084	     56.14372082	      0.97989278	     17.26233610	    -16.15011376	      0.00000000	      0.00000000	    119.98560080	      0.78422150	     39.96559712	    114.00669888	      1.98979226	     24.80406634	      3.54518816	      0.00000000	      0.00000000	    -31.94745561	     31.28258190	     12.17494468	     84.60433406	     -5.81494343	     67.18613316	     26.89793410	     48.57354324	      0.00000000	      0.00000000	     75.15702762	    -23.33743264	     51.28903409	     38.46407003	     55.47812698	      0.00000000	      0.00000000
      0.00500000	    -29.58513661	    -31.87030328	     -2.92453385	      0.11676413	      1.00768177	     -0.27200266	      0.00000000	      0.50000000	      0.00000000	      0.25000000	     62.56470016	     21.34780081	    -20.95503370	     56.11390861	      0.97937246	     17.29156594	    -16.15275796	      0.00000000	      0.00000000	    119.98560880	      0.79039058	     39.96557652	    114.00497966	      1.98976226	     24.80216943	      3.54641263	      0.00000000	      0.00000000	    -31.94517236	     31.28334562	     12.18006535	     84.61008177	     -5.81780554	     67.18448164	     26.89829555	     48.57365923	      0.00000000	      0.00000000	     75.16664285	    -23.34583083	     51.28535011	     38.46174580	     55.47670550	      0.00000000	      0.00000000
      0.01000000	    -29.57907763	    -31.87869613	     -2.91980680	      0.11675563	      1.00770102	     -0.27199244	      0.00000000	      0.50000000	      0.00000000	      0.25000000	     62.55711328	     21.35797199	    -20.95382986	     56.10679874	      0.97924837	     17.30438030	    -16.15224769	      0.00000000	      0.00000000	    119.98560451	      0.78602127	     39.96557564	    113.99613811	      1.98960794	     24.80118000	      3.54870438	      0.00000000	      0.00000000	    -31.95812858	     31.28036925	     12.17944673	     84.61374005	     -5.82324648	     67.18292926	     26.89799889	     48.57366361	      0.00000000	      0.00000000	     75.17192859	    -23.35242553	     51.28264846	     38.45997055	     55.47562577	      0.00000000	      0.00000000
      0.01500000	    -29.56906976	    -31.90295310	     -2.91024999	      0.11674974	      1.00769825	     -0.27199108	      0.00000000	      0.50000000	      0.00000000	      0.25000000	     62.57428891	     21.38449697	    -20.94824071	     56.10988268	      0.97930220	     17.31558236	    -16.15808639	      0.00000000	      0.00000000	    119.98561024	      0.78616344	     39.96552998	    113.98915717	      1.98948610	     24.80060084	      3.54743958	      0.00000000	      0.00000000	    -31.97335398	     31.29307343	     12.17725543	     84.61687741	     -5.83033401	     67.18129263	     26.89750415	     48.57363354	      0.00000000	      0.00000000	     75.18238669	    -23.35938945	     51.27913733	     38.45924769	     55.47451765	      0.00000000	      0.00000000
      0.02000000	    -29.56053692	    -31.91349785	     -2.89999973	      0.11668669	      1.00770275	     -0.27201542	      0.00000000	      0.50000000	      0.00000000	      0.25000000	     62.57905406	     21.38998405	    -20.94767763	     56.11185821	      0.97933668	     17.31971516	    -16.15753524	      0.00000000	      0.00000000	    119.98557363	      0.79276257	     39.96553256	    113.98652194	      1.98944011	     24.79489884	      3.55087821	      0.00000000	      0.00000000	    -31.98598226	     31.29533159	     12.17757284	     84.62488475	     -5.83796757	     67.17949459	     26.89732663	     48.57352769	      0.00000000	      0.00000000	     75.19137201	    -23.36908969	     51.27528240	     38.45768611	     55.47331711	      0.00000000	      0.00000000
      0.02500000	    -29.55819726	    -31.91617293	     -2.88987699	      0.11667163	      1.00769328	     -0.27204068	      0.00000000	      0.50000000	      0.00000000	      0.25000000	     62.57729138	     21.38195435	    -20.94976517	     56.11791313	      0.97944235	     17.32404522	    -16.15884970	      0.00000000	      0.00000000	    119.98560375	      0.80380984	     39.96557434	    113.97623912	      1.98926064	     24.78984478	      3.55470467	      0.00000000	      0.00000000	    -31.99198012	     31.30088942	     12.18596378	     84.63508537	     -5.84508197	     67.17831780	     26.89866825	     48.57383150	      0.00000000	      0.00000000	     75.20242904	    -23.38410640	     51.27082000	     38.45676621	     55.47209648	      0.00000000	      0.00000000
      0.03000000	    -29.55247409	    -31.92783921	     -2.88684154	      0.11664321	      1.00769340	     -0.27205705	      0.00000000	      0.50000000	      0.00000000	      0.25000000	     62.58365793	     21.39219050	    -20.95521089	     56.12394812	      0.97954768	     17.32626911	    -16.15933594	      0.00000000	      0.00000000	    119.98556965	      0.80386072	     39.96555355	    113.97530636	      1.98924436	     24.78592543	      3.55754584	      0.00000000	      0.00000000	    -32.00527941	     31.30244051	     12.18092068	     84.64204380	     -5.85299282	     67.17727639	     26.89928881	     48.57399977	      0.00000000	      0.00000000	     75.20987328	    -23.39080392	     51.26913395	     38.45811269	     55.47167988	      0.00000000	      0.00000000
      0.03500000	    -29.54957335	    -31.92987529	     -2.87771976	      0.11663086	      1.00767896	     -0.27206930	      0.00000000	      0.50000000	      0.00000000	      0.25000000	     62.58351232	     21.38646231	    -20.95650225	     56.13211857	      0.97969029	     17.32814950	    -16.16239293	      0.00000000	      0.00000000	    119.98559966	      0.81200296	     39.96558421	    113.96627865	      1.98908680	     24.78356826	      3.56088033	      0.00000000	      0.00000000	    -32.00930392	     31.30684521	     12.18791922	     84.65035636	     -5.85889992	     67.17762579	     26.90240535	     48.57485980	      0.00000000	      0.00000000	     75.21977130	    -23.40405870	     51.26735600	     38.46025653	     55.47136164	      0.00000000	      0.00000000
      0.04000000	    -29.54278413	    -31.93985388	     -2.87477401	      0.11661296	      1.00767346	     -0.27209261	      0.00000000	      0.50000000	      0.00000000	      0.25000000	     62.58828204	     21.39516612	    -20.96131791	     56.13908967	      0.97981195	     17.32988695	    -16.16502735	      0.00000000	      0.00000000	    119.98556651	      0.80990233	     39.96556132	    113.96773439	      1.98911221	     24.78077333	      3.56406597	      0.00000000	      0.00000000	    -32.02008981	     31.30812398	     12.18305921	     84.65621035	     -5.86596842	     67.17769905	     26.90409388	     48.57539899	      0.00000000	      0.00000000	     75.22735295	    -23.40946222	     51.26750749	     38.46401374	     55.47159037	      0.00000000	      0.00000000
      0.04500000	    -29.53957162	    -31.94160284	     -2.86744142	      0.11660115	      1.00765895	     -0.27210285	      0.00000000	      0.50000000	      0.00000000	      0.25000000	     62.58837735	     21.39102291	    -20.96133610	     56.14836392	      0.97997382	     17.33012545	    -16.17092638	      0.00000000	      0.00000000	    119.98559691	      0.81694367	     39.96558437	    113.96088265	      1.98899262	     24.77860887	      3.56819017	      0.00000000	      0.00000000	    -32.02276897	     31.31186889	     12.19103762	     84.66159755	     -5.87141952	     67.17984237	     26.90805503	     48.57674887	      0.00000000	      0.00000000	     75.23693099	    -23.42214035	     51.26812160	     38.46809354	     55.47195688	      0.00000000	      0.00000000
      0.05000000	    -29.54289957	    -31.94431794	     -2.86596093	      0.11658847	      1.00763870	     -0.27213379	      0.00000000	      0.50000000	      0.00000000	      0.25000000	     62.59411034	     21.38951805	    -20.96087235	     56.15750224	      0.98013331	     17.33233736	    -16.18148461	      0.00000000	      0.00000000	    119.98560687	      0.82398699	     39.96558246	    113.95844657	      1.98895010	     24.77419343	      3.57503023	      0.00000000	      0.00000000	    -31.99913426	     31.32890551	     12.23374965	     84.65711540	     -5.90222540	     67.18200645	     26.90359528	     48.57737600	      0.00000000	      0.00000000	     75.28936906	    -23.49288348	     51.24054521	     38.45419883	     55.46503892	      0.00000000	      0.00000000
      0.05500000	    -29.53166834	    -31.95679919	     -2.85898826	      0.11656528	      1.00763466	     -0.27216652	      0.00000000	      0.50000000	      0.00000000	      0.25000000	     62.60023517	     21.40358442	    -20.95443333	     56.16445078	      0.98025459	     17.33241288	    -16.18703540	      0.00000000	      0.00000000	    119.98556729	      0.82581706	     39.96556978	    113.96275895	      1.98902537	     24.77449787	      3.57604996	      0.00000000	      0.00000000	    -32.01756305	     31.32642228	     12.22568337	     84.66030051	     -5.91896721	     67.18295778	     26.90267125	     48.57786225	      0.00000000	      0.00000000	     75.30687797	    -23.50899219	     51.23340113	     38.45316024	     55.46335967	      0.00000000	      0.00000000
      0.06000000	    -29.52450025	    -31.95909717	     -2.84839232	      0.11654513	      1.00761498	     -0.27217942	      0.00000000	      0.50000000	      0.00000000	      0.25000000	     62.59753819	     21.40220111	    -20.94617180	     56.17285862	      0.98040133	     17.33390475	    -16.20077486	      0.00000000	      0.00000000	    119.98559475	      0.83621975	     39.96560331	    113.95703531	      1.98892547	     24.77388746	      3.57658195	      0.00000000	      0.00000000	    -32.02171694	     31.32732452	     12.23131715	     84.66671953	     -5.92909068	     67.18709302	     26.90647108	     48.57964782	      0.00000000	      0.00000000	     75.32682895	    -23.52941804	     51.22635959	     38.45269046	     55.46176690	      0.00000000	      0.00000000
      0.06500000	    -29.53223748	    -31.95751773	     -2.84362949	      0.11653261	      1.00760168	     -0.27219540	      0.00000000	      0.50000000	      0.00000000	      0.25000000	     62.61321410	     21.39999086	    -20.94602505	     56.17998743	      0.98052575	     17.33729496	    -16.22269509	      0.00000000	      0.00000000	    119.98560370	      0.84450481	     39.96562483	    113.95277843	      1.98885118	     24.76379459	      3.58729222	      0.00000000	      0.00000000	    -31.98819222	     31.35056677	     12.32465951	     84.65675186	     -5.99972401	     67.18938863	     26.89119287	     48.57942794	      0.00000000	      0.00000000	     75.34788985	    -23.67745628	     51.18377751	     38.39503777	     55.44770187	      0.00000000	      0.00000000
      0.07000000	    -29.51732011	    -31.96701016	     -2.83894873	      0.11653017	      1.00760353	     -0.27219469	      0.00000000	      0.50000000	      0.00000000	      0.25000000	     62.60475083	     21.41471700	    -20.94133914	     56.18613417	      0.98063304	     17.33403117	    -16.23326541	      0.00000000	      0.00000000	    119.98559058	      0.84026348	     39.96558944	    113.95388174	      1.98887043	     24.76315746	      3.58776510	      0.00000000	      0.00000000	    -32.00768273	     31.34633692	     12.31749711	     84.66129030	     -6.01964409	     67.19293614	     26.89181776	     48.58076805	      0.00000000	      0.00000000	     75.34953144	    -23.70070231	     51.17521150	     38.38370795	     55.44484978	      0.00000000	      0.00000000
